# xmcd
#
# Track frame offsets: 
#        150
#        8452
#        18588
#        30657
#        49388
#        69052
#        82590
#        95815
#        116068
#        133365
#        153109
#        174712
#
# Disc length: 2502 seconds
#
# Revision: 5
# Processed by: cddbd v1.5.2PL0 Copyright (c) Steve Scherf et al.
# Submitted via: ExactAudioCopy v0.99pb5
#
DISCID=9009c40c
DTITLE=Nas - Street's Disciple (Disc1)
DYEAR=2004
DGENRE=Hip-Hop
TTITLE0=Intro
TTITLE1=A Message To The Feds, Sincerely, We The People
TTITLE2=Nazareth Savage
TTITLE3=American Way (feat. Kelis)
TTITLE4=These Are Our Heroes
TTITLE5=Disciple
TTITLE6=Sekou Story (feat. Scarlett)
TTITLE7=Live Now (feat. Scarlett)
TTITLE8=Rest Of My Life (Background vocals by Amerie)
TTITLE9=Just A Momen (feat. Quan)
TTITLE10=Reason (feat. Emily)
TTITLE11=You Know My Style
EXTD=
EXTT0=
EXTT1=
EXTT2=
EXTT3=
EXTT4=
EXTT5=
EXTT6=
EXTT7=
EXTT8=
EXTT9=
EXTT10=
EXTT11=
PLAYORDER=
